custom-analysis
version=1
nRows=15
nColumns=38
inDegrees=no

This file contains tibia displacement and acting force.

Units are S.I. units (seconds, meters, Newtons, ...)
Angles are in degrees.

endheader
time	APT	SIT	knee_angle	aACL_R_force	pACL_R_force	aPCL_R_force	pPCL_R_force	aMCL_R_force	aLCL_R_force	aPCL_L_force	pPCL_L_force	aMCL_L_force	aLCL_L_force	aACL_R_length	pACL_R_length	aPCL_R_length	pPCL_R_length	aMCL_R_length	aLCL_R_length	aPCL_L_length	pPCL_L_length	aMCL_L_length	aLCL_L_length	aACL_R_strain	pACL_R_strain	aPCL_R_strain	pPCL_R_strain	aMCL_R_strain	aLCL_R_strain	aPCL_L_strain	pPCL_L_strain	aMCL_L_strain	aLCL_L_strain	femur_lat_meniscii_force_r	femur_med_meniscii_force_r	femur_lat_tibia_force_r	femur_med_tibia_force_r
      0.06664917	      0.01658823	      0.05048833	      9.46197234	      0.00000000	    520.88847501	    262.59251431	    564.50268073	      0.00000000	      0.00000000	      0.00000000	      0.00000000	      5.68581820	      0.00000000	      0.02909689	      0.03210995	      0.03552770	      0.02715152	      0.03041529	      0.01169037	      0.01463061	      0.02401061	      0.07488195	      0.05008391	     -0.08115092	      0.33461094	      0.32659321	      0.10422863	     -0.58723231	     -0.77980004	     -0.45369740	     -0.02350936	      0.01622727	     -0.05661907	      0.00000000	      0.00000000	      0.00000000	      0.00000000
      0.06666667	      0.01660716	      0.05048956	      9.46827878	      0.00000000	    521.04550578	    262.53020700	    564.50913618	      0.00000000	      0.00000000	      0.00000000	      0.00000000	      5.70679753	      0.00000000	      0.02910471	      0.03211140	      0.03552511	      0.02715565	      0.03042519	      0.01169034	      0.01462977	      0.02401190	      0.07488195	      0.05008226	     -0.08090386	      0.33467135	      0.32649673	      0.10439659	     -0.58709806	     -0.77980074	     -0.45372895	     -0.02345693	      0.01622720	     -0.05665021	      0.00000000	      0.00000000	      0.00000000	      0.00000000
      0.06940539	      0.01910051	      0.05073895	     10.43801474	      0.00000000	    518.03841173	    270.39762846	    456.26156146	      0.00000000	      0.00000000	      0.00000000	      0.00000000	      8.05197305	      0.00000000	      0.02991643	      0.03230902	      0.03518932	      0.02750591	      0.03156138	      0.01179116	      0.01450570	      0.02421573	      0.07488612	      0.04982048	     -0.05527076	      0.34288519	      0.31395831	      0.11864139	     -0.57167877	     -0.77790160	     -0.45836167	     -0.01516741	      0.01628378	     -0.06158101	      0.00000000	      0.00000000	      0.00000000	      0.00000000
      0.07310309	      0.02067609	      0.05156860	     11.64555050	      0.00000000	    492.31139971	    369.03375656	    258.69186825	      0.00000000	      0.00000000	      0.00000000	      0.00000000	      9.00439707	      0.00000000	      0.02940237	      0.03231628	      0.03531480	      0.02723538	      0.03122801	      0.01184977	      0.01437294	      0.02450291	      0.07489978	      0.04946398	     -0.07150405	      0.34318698	      0.31864391	      0.10763910	     -0.57620287	     -0.77679770	     -0.46331870	     -0.00348824	      0.01646914	     -0.06829610	      0.00000000	      0.00000000	      0.00000000	      0.00000000
      0.07362381	      0.02075035	      0.05173439	     11.80683681	      0.00000000	    490.91317633	    387.93461531	    246.65452323	      0.00000000	      0.00000000	      0.00000000	      0.00000000	      9.03341227	      0.00000000	      0.02920889	      0.03230446	      0.03541524	      0.02717909	      0.03103199	      0.01192340	      0.01435840	      0.02454523	      0.07490187	      0.04941419	     -0.07761396	      0.34269557	      0.32239418	      0.10534979	     -0.57886315	     -0.77541081	     -0.46386181	     -0.00176684	      0.01649759	     -0.06923392	      0.00000000	      0.00000000	      0.00000000	      0.00000000
      0.07549687	      0.02082651	      0.05236764	     12.38046132	      0.00000000	    492.24067322	    452.78585342	    236.27342001	      0.00000000	      0.00000000	      0.00000000	     30.37091776	     -8.09014972	      0.00000000	      0.02837405	      0.03226660	      0.03592462	      0.02700968	      0.03019193	      0.01254121	      0.01429689	      0.02466636	      0.07489425	      0.04922799	     -0.10397749	      0.34112214	      0.34141425	      0.09845991	     -0.59026362	     -0.76377364	     -0.46615853	      0.00315905	      0.01639409	     -0.07274114	      0.00000000	      0.00000000	      0.00000000	      0.00000000
      0.07736992	      0.02075840	      0.05298742	     12.96125004	      0.00000000	    498.30966716	    500.50324610	    257.51818334	      0.00000000	      0.00000000	      0.00000000	     17.81919164	     -9.96947189	      0.00000000	      0.02745088	      0.03225714	      0.03658191	      0.02692082	      0.02934573	      0.01374080	      0.01420123	      0.02471024	      0.07485472	      0.04902612	     -0.13313006	      0.34072880	      0.36595713	      0.09484615	     -0.60174748	     -0.74117812	     -0.46973053	      0.00494396	      0.01585766	     -0.07654366	      0.00000000	      0.00000000	      0.00000000	      0.00000000
      0.07779794	      0.02074445	      0.05311984	     13.09740992	      0.00000000	    499.24740455	    507.72549774	    263.73154351	      0.00000000	      0.00000000	      0.00000000	     16.63550222	     -9.83326548	      0.00000000	      0.02724316	      0.03225883	      0.03673859	      0.02691192	      0.02917586	      0.01407732	      0.01417813	      0.02471764	      0.07484559	      0.04898072	     -0.13968958	      0.34079898	      0.37180768	      0.09448438	     -0.60405274	     -0.73483958	     -0.47059300	      0.00524456	      0.01573380	     -0.07739875	      0.00000000	      0.00000000	      0.00000000	      0.00000000
      0.07993806	      0.02080534	      0.05371698	     13.81022261	      0.00000000	    494.89143417	    520.24250639	    287.16202898	      0.00000000	      0.00000000	      0.00000000	     13.37319413	     -8.68312461	      0.00000000	      0.02628987	      0.03226440	      0.03746870	      0.02690988	      0.02854747	      0.01587449	      0.01406046	      0.02474957	      0.07480298	      0.04876172	     -0.16979362	      0.34103057	      0.39906968	      0.09440139	     -0.61258066	     -0.70098792	     -0.47498686	      0.00654341	      0.01515552	     -0.08152378	      0.00000000	      0.00000000	      0.00000000	      0.00000000
      0.08280351	      0.02150803	      0.05441258	     14.87570764	      0.00000000	    459.93967236	    488.00204548	    293.15049160	      0.00000000	      0.00000000	      0.00000000	     10.58688809	     -8.32286658	      0.00000000	      0.02534194	      0.03215515	      0.03809979	      0.02693817	      0.02832168	      0.01785793	      0.01390307	      0.02478961	      0.07475492	      0.04849328	     -0.19972834	      0.33648990	      0.42263442	      0.09555188	     -0.61564482	     -0.66362792	     -0.48086383	      0.00817160	      0.01450332	     -0.08658017	      0.00000000	      0.00000000	      0.00000000	      0.00000000
      0.08283216	      0.02151955	      0.05441958	     14.88706786	      0.00000000	    459.46811620	    487.52253686	    293.21453771	      0.00000000	      0.00000000	      0.00000000	     15.41514682	     -7.80712009	      0.00000000	      0.02533471	      0.03215298	      0.03810348	      0.02693840	      0.02832247	      0.01787240	      0.01390149	      0.02478995	      0.07475442	      0.04849076	     -0.19995658	      0.33639961	      0.42277211	      0.09556103	     -0.61563419	     -0.66335536	     -0.48092262	      0.00818573	      0.01449651	     -0.08662768	      0.00000000	      0.00000000	      0.00000000	      0.00000000
      0.08290082	      0.02154754	      0.05443636	     14.91434249	      0.00000000	    458.33375953	    486.36773058	    293.38028900	      0.00000000	      0.00000000	      0.00000000	     17.66055258	     -7.57758630	      0.00000000	      0.02531758	      0.03214768	      0.03811210	      0.02693894	      0.02832454	      0.01790656	      0.01389786	      0.02479099	      0.07475325	      0.04848484	     -0.20049741	      0.33617936	      0.42309415	      0.09558303	     -0.61560600	     -0.66271198	     -0.48105825	      0.00822771	      0.01448060	     -0.08673911	      0.00000000	      0.00000000	      0.00000000	      0.00000000
      0.08296948	      0.02157606	      0.05445321	     14.94169563	      0.00000000	    457.19374592	    485.20501525	    293.56424074	      0.00000000	      0.00000000	      0.00000000	     17.38990112	     -7.62449640	      0.00000000	      0.02530073	      0.03214225	      0.03812043	      0.02693948	      0.02832690	      0.01793998	      0.01389429	      0.02479210	      0.07475209	      0.04847899	     -0.20102972	      0.33595360	      0.42340513	      0.09560515	     -0.61557402	     -0.66208231	     -0.48119164	      0.00827301	      0.01446484	     -0.08684930	      0.00000000	      0.00000000	      0.00000000	      0.00000000
      0.08331275	      0.02172657	      0.05453842	     15.07962669	      0.00000000	    451.43047477	    479.29349656	    294.79434082	      0.00000000	      0.00000000	      0.00000000	     16.20934000	     -7.79390284	      0.00000000	      0.02522053	      0.03211312	      0.03815767	      0.02694230	      0.02834272	      0.01809609	      0.01387627	      0.02479738	      0.07474624	      0.04844988	     -0.20356216	      0.33474303	      0.42479578	      0.09571957	     -0.61535934	     -0.65914200	     -0.48186440	      0.00848752	      0.01438550	     -0.08739771	      0.00000000	      0.00000000	      0.00000000	      0.00000000
      0.08502914	      0.02267072	      0.05499895	     15.79674048	      0.00000000	    423.20090159	    449.31101490	    312.20049788	      0.00000000	      0.00000000	      0.00000000	     13.24170281	     -7.71226402	      0.00000000	      0.02492619	      0.03192356	      0.03824194	      0.02696520	      0.02850840	      0.01859584	      0.01378374	      0.02481912	      0.07471715	      0.04830840	     -0.21285711	      0.32686405	      0.42794221	      0.09665116	     -0.61311093	     -0.64972862	     -0.48531931	      0.00937191	      0.01399071	     -0.09006268	      0.00000000	      0.00000000	      0.00000000	      0.00000000
